<svg xmlns="http://www.w3.org/2000/svg" viewBox="0 0 512 512" width="1024" height="1024">
  <g transform="translate(256,256) scale(1.42) translate(-256,-268)">
  <polygon points="256.0,104.0 398.0,184.0 256.0,264.0 114.0,184.0" fill="#C75E38" stroke="#2A211C" stroke-width="16" stroke-linejoin="round"/>
  <line x1="256.0" y1="264.0" x2="256.0" y2="104.0" stroke="#2A211C" stroke-width="16" stroke-linecap="round"/>
  <polygon points="114.0,184.0 256.0,264.0 256.0,432.0 114.0,352.0" fill="#E57B53" stroke="#2A211C" stroke-width="16" stroke-linejoin="round"/>
  <polygon points="256.0,264.0 398.0,184.0 398.0,352.0 256.0,432.0" fill="#D26741" stroke="#2A211C" stroke-width="16" stroke-linejoin="round"/>
  <line x1="256.0" y1="264.0" x2="256.0" y2="432.0" stroke="#2A211C" stroke-width="16" stroke-linecap="round"/>
  <polygon points="114.0,184.0 256.0,264.0 313.3,231.7 171.3,151.7" fill="#F8EEE1" stroke="#2A211C" stroke-width="16" stroke-linejoin="round"/>
  <polygon points="256.0,264.0 398.0,184.0 340.7,151.7 198.7,231.7" fill="#F2E6D6" stroke="#2A211C" stroke-width="16" stroke-linejoin="round"/>
  <g transform="translate(330,362) skewY(-29.4)" font-family="'Arial Black','Segoe UI','Microsoft YaHei',sans-serif" font-weight="900" font-size="46" text-anchor="middle" letter-spacing="1">
    <text transform="translate(2.4,2.8)" fill="#4f2712">hty</text>
    <text transform="translate(1.2,1.4)" fill="#653419">hty</text>
    <text fill="#F7EDE0" stroke="#2A211C" stroke-width="4" paint-order="stroke">hty</text>
  </g>
  </g>
</svg>