<svg xmlns="http://www.w3.org/2000/svg" viewBox="0 0 1044 1046" font-family="Segoe UI, Microsoft YaHei, PingFang SC, sans-serif">
  <defs>
    <linearGradient id="page" x1="0" y1="0" x2="0" y2="1">
      <stop offset="0" stop-color="#cdc7ba"/>
      <stop offset="1" stop-color="#b6b0a1"/>
    </linearGradient>
    <clipPath id="tile"><rect width="160" height="160" rx="36"/></clipPath>
    <clipPath id="sq"><rect x="46" y="50" width="68" height="68" rx="14"/></clipPath>
    <filter id="soft" x="-30%" y="-30%" width="160%" height="160%">
      <feDropShadow dx="0" dy="6" stdDeviation="7" flood-color="#3a2f28" flood-opacity="0.22"/>
    </filter>
    <!-- 放射芒（尖朝上，无填充，由 use 设色） -->
    <g id="rayL"><path d="M-4 2 L0 -46 L4 2 Z"/></g>
    <g id="rayS"><path d="M-3.4 2 L0 -29 L3.4 2 Z"/></g>
    <!-- 花结环（跑道形，由 use 设描边色） -->
    <g id="loop"><rect x="-9.5" y="-46" width="19" height="56" rx="9.5" fill="none" stroke-width="5.5"/></g>
  </defs>

  <rect width="1044" height="1046" fill="url(#page)"/>

  <text x="50" y="50" font-size="30" font-weight="700" fill="#221f1a">HtyBox · 应用图标方案 C</text>
  <text x="50" y="78" font-size="15" fill="#4d493f">借鉴 Claude / OpenAI 哲学 · 抽象单色 mark · 居中留白 · 放射星芒 / 几何对称结 / 字母 H / 抽象立方</text>

  <g font-size="13" font-weight="600" text-anchor="middle">
    <g transform="translate(560,38)"><rect width="58" height="24" rx="12" fill="#faf9f5" stroke="#d97757" stroke-width="1.5"/><text x="29" y="16" fill="#b85a3d">简洁</text></g>
    <g transform="translate(626,38)"><rect width="58" height="24" rx="12" fill="#faf9f5" stroke="#d97757" stroke-width="1.5"/><text x="29" y="16" fill="#b85a3d">大气</text></g>
    <g transform="translate(692,38)"><rect width="58" height="24" rx="12" fill="#faf9f5" stroke="#d97757" stroke-width="1.5"/><text x="29" y="16" fill="#b85a3d">规则</text></g>
    <g transform="translate(758,38)"><rect width="58" height="24" rx="12" fill="#faf9f5" stroke="#d97757" stroke-width="1.5"/><text x="29" y="16" fill="#b85a3d">柔和</text></g>
    <g transform="translate(824,38)"><rect width="58" height="24" rx="12" fill="#faf9f5" stroke="#d97757" stroke-width="1.5"/><text x="29" y="16" fill="#b85a3d">Box</text></g>
  </g>

  <g transform="translate(908,30)">
    <rect x="0" y="0" width="22" height="22" rx="5" fill="#d97757"/>
    <rect x="26" y="0" width="22" height="22" rx="5" fill="#faf9f5" stroke="#0000001a"/>
    <rect x="52" y="0" width="22" height="22" rx="5" fill="#e5e2d9"/>
    <rect x="78" y="0" width="22" height="22" rx="5" fill="#1f1e1d"/>
    <rect x="104" y="0" width="22" height="22" rx="5" fill="#d4a27f"/>
  </g>

  <!-- ROW 0 · 放射星芒(Anthropic 派) -->
  <!-- 1 经典星芒 -->
  <g transform="translate(50,120)">
    <rect width="160" height="160" rx="36" fill="#d97757" filter="url(#soft)"/>
    <g clip-path="url(#tile)">
      <g transform="translate(80,84)" fill="#faf9f5">
        <use href="#rayL" transform="rotate(0)"/><use href="#rayS" transform="rotate(22.5)"/>
        <use href="#rayL" transform="rotate(45)"/><use href="#rayS" transform="rotate(67.5)"/>
        <use href="#rayL" transform="rotate(90)"/><use href="#rayS" transform="rotate(112.5)"/>
        <use href="#rayL" transform="rotate(135)"/><use href="#rayS" transform="rotate(157.5)"/>
        <use href="#rayL" transform="rotate(180)"/><use href="#rayS" transform="rotate(202.5)"/>
        <use href="#rayL" transform="rotate(225)"/><use href="#rayS" transform="rotate(247.5)"/>
        <use href="#rayL" transform="rotate(270)"/><use href="#rayS" transform="rotate(292.5)"/>
        <use href="#rayL" transform="rotate(315)"/><use href="#rayS" transform="rotate(337.5)"/>
        <circle r="7" fill="#faf9f5"/>
      </g>
    </g>
    <text x="80" y="190" text-anchor="middle" font-size="14" font-weight="600" fill="#2a2722">① 经典星芒</text>
  </g>

  <!-- 2 方裁星芒 -->
  <g transform="translate(246,120)">
    <rect width="160" height="160" rx="36" fill="#faf9f5" filter="url(#soft)"/>
    <g clip-path="url(#tile)">
      <g clip-path="url(#sq)">
        <g transform="translate(80,84)" fill="#d97757">
          <use href="#rayL" transform="rotate(0)"/><use href="#rayL" transform="rotate(22.5)"/>
          <use href="#rayL" transform="rotate(45)"/><use href="#rayL" transform="rotate(67.5)"/>
          <use href="#rayL" transform="rotate(90)"/><use href="#rayL" transform="rotate(112.5)"/>
          <use href="#rayL" transform="rotate(135)"/><use href="#rayL" transform="rotate(157.5)"/>
          <use href="#rayL" transform="rotate(180)"/><use href="#rayL" transform="rotate(202.5)"/>
          <use href="#rayL" transform="rotate(225)"/><use href="#rayL" transform="rotate(247.5)"/>
          <use href="#rayL" transform="rotate(270)"/><use href="#rayL" transform="rotate(292.5)"/>
          <use href="#rayL" transform="rotate(315)"/><use href="#rayL" transform="rotate(337.5)"/>
        </g>
      </g>
      <rect x="46" y="50" width="68" height="68" rx="14" fill="none" stroke="#d97757" stroke-width="2.5"/>
      <circle cx="80" cy="84" r="6.5" fill="#d97757"/>
    </g>
    <text x="80" y="190" text-anchor="middle" font-size="14" font-weight="600" fill="#2a2722">② 方裁星芒</text>
  </g>

  <!-- 3 H+放射光环 -->
  <g transform="translate(442,120)">
    <rect width="160" height="160" rx="36" fill="#d97757" filter="url(#soft)"/>
    <g clip-path="url(#tile)">
      <g transform="translate(80,84)" fill="#ffffff" opacity="0.26">
        <use href="#rayL" transform="rotate(0)"/><use href="#rayL" transform="rotate(30)"/>
        <use href="#rayL" transform="rotate(60)"/><use href="#rayL" transform="rotate(90)"/>
        <use href="#rayL" transform="rotate(120)"/><use href="#rayL" transform="rotate(150)"/>
        <use href="#rayL" transform="rotate(180)"/><use href="#rayL" transform="rotate(210)"/>
        <use href="#rayL" transform="rotate(240)"/><use href="#rayL" transform="rotate(270)"/>
        <use href="#rayL" transform="rotate(300)"/><use href="#rayL" transform="rotate(330)"/>
      </g>
      <rect x="62" y="58" width="10" height="54" rx="5" fill="#ffffff"/>
      <rect x="88" y="58" width="10" height="54" rx="5" fill="#ffffff"/>
      <rect x="62" y="79" width="36" height="10" rx="5" fill="#ffffff"/>
    </g>
    <text x="80" y="190" text-anchor="middle" font-size="14" font-weight="600" fill="#2a2722">③ H · 放射光环</text>
  </g>

  <!-- 4 立方棱放射 -->
  <g transform="translate(638,120)">
    <rect width="160" height="160" rx="36" fill="#1f1e1d" filter="url(#soft)"/>
    <g clip-path="url(#tile)">
      <g transform="translate(80,84)" fill="#d97757">
        <use href="#rayL" transform="rotate(0)"/><use href="#rayL" transform="rotate(60)"/>
        <use href="#rayL" transform="rotate(120)"/><use href="#rayL" transform="rotate(180)"/>
        <use href="#rayL" transform="rotate(240)"/><use href="#rayL" transform="rotate(300)"/>
      </g>
      <path d="M80 70 L94 78 L80 86 L66 78 Z" fill="#ecb59c"/>
      <path d="M66 78 L80 86 L80 100 L66 92 Z" fill="#d97757"/>
      <path d="M80 86 L94 78 L94 92 L80 100 Z" fill="#b85a3d"/>
    </g>
    <text x="80" y="190" text-anchor="middle" font-size="14" font-weight="600" fill="#2a2722">④ 立方棱放射</text>
  </g>

  <!-- 5 旋转星芒+方心 -->
  <g transform="translate(834,120)">
    <rect width="160" height="160" rx="36" fill="#d97757" filter="url(#soft)"/>
    <g clip-path="url(#tile)">
      <g transform="translate(80,84) rotate(11)" fill="#faf9f5">
        <use href="#rayL" transform="rotate(0)"/><use href="#rayL" transform="rotate(22.5)"/>
        <use href="#rayL" transform="rotate(45)"/><use href="#rayL" transform="rotate(67.5)"/>
        <use href="#rayL" transform="rotate(90)"/><use href="#rayL" transform="rotate(112.5)"/>
        <use href="#rayL" transform="rotate(135)"/><use href="#rayL" transform="rotate(157.5)"/>
        <use href="#rayL" transform="rotate(180)"/><use href="#rayL" transform="rotate(202.5)"/>
        <use href="#rayL" transform="rotate(225)"/><use href="#rayL" transform="rotate(247.5)"/>
        <use href="#rayL" transform="rotate(270)"/><use href="#rayL" transform="rotate(292.5)"/>
        <use href="#rayL" transform="rotate(315)"/><use href="#rayL" transform="rotate(337.5)"/>
      </g>
      <rect x="72" y="76" width="16" height="16" rx="5" fill="#faf9f5"/>
    </g>
    <text x="80" y="190" text-anchor="middle" font-size="14" font-weight="600" fill="#2a2722">⑤ 旋转星芒·方心</text>
  </g>

  <!-- ROW 1 · 几何对称结(OpenAI 派) -->
  <!-- 6 四瓣花结 -->
  <g transform="translate(50,354)">
    <rect width="160" height="160" rx="36" fill="#faf9f5" filter="url(#soft)"/>
    <g clip-path="url(#tile)">
      <g transform="translate(80,84)" fill="none" stroke="#d97757" stroke-width="5" stroke-linejoin="round">
        <path d="M0 -8 C11 -8 11 -26 0 -50 C-11 -26 -11 -8 0 -8 Z" transform="rotate(0)"/>
        <path d="M0 -8 C11 -8 11 -26 0 -50 C-11 -26 -11 -8 0 -8 Z" transform="rotate(90)"/>
        <path d="M0 -8 C11 -8 11 -26 0 -50 C-11 -26 -11 -8 0 -8 Z" transform="rotate(180)"/>
        <path d="M0 -8 C11 -8 11 -26 0 -50 C-11 -26 -11 -8 0 -8 Z" transform="rotate(270)"/>
      </g>
      <circle cx="80" cy="84" r="7" fill="#d97757"/>
    </g>
    <text x="80" y="190" text-anchor="middle" font-size="14" font-weight="600" fill="#2a2722">⑥ 四瓣花结</text>
  </g>

  <!-- 7 立方线框 -->
  <g transform="translate(246,354)">
    <rect width="160" height="160" rx="36" fill="#faf9f5" filter="url(#soft)"/>
    <g clip-path="url(#tile)">
      <path d="M80 50 L109.4 67 L109.4 101 L80 118 L50.6 101 L50.6 67 Z" fill="none" stroke="#d97757" stroke-width="5.5" stroke-linejoin="round"/>
      <path d="M80 84 L80 50 M80 84 L109.4 101 M80 84 L50.6 101" fill="none" stroke="#d97757" stroke-width="5.5" stroke-linecap="round" stroke-linejoin="round"/>
      <circle cx="80" cy="84" r="5" fill="#d97757"/>
    </g>
    <text x="80" y="190" text-anchor="middle" font-size="14" font-weight="600" fill="#2a2722">⑦ 立方线框</text>
  </g>

  <!-- 8 正交编织 -->
  <g transform="translate(442,354)">
    <rect width="160" height="160" rx="36" fill="#1f1e1d" filter="url(#soft)"/>
    <g clip-path="url(#tile)" stroke="#d97757" stroke-width="6" stroke-linecap="round">
      <line x1="60" y1="58" x2="60" y2="110"/><line x1="80" y1="58" x2="80" y2="110"/><line x1="100" y1="58" x2="100" y2="110"/>
      <line x1="56" y1="60" x2="112" y2="60"/><line x1="56" y1="84" x2="112" y2="84"/><line x1="56" y1="108" x2="112" y2="108"/>
    </g>
    <text x="80" y="190" text-anchor="middle" font-size="14" font-weight="600" fill="#2a2722">⑧ 正交编织</text>
  </g>

  <!-- 9 六瓣花结 -->
  <g transform="translate(638,354)">
    <rect width="160" height="160" rx="36" fill="#d97757" filter="url(#soft)"/>
    <g clip-path="url(#tile)">
      <g transform="translate(80,84)" fill="none" stroke="#faf9f5" stroke-width="5" stroke-linejoin="round">
        <path d="M0 -8 C11 -8 11 -26 0 -48 C-11 -26 -11 -8 0 -8 Z" transform="rotate(0)"/>
        <path d="M0 -8 C11 -8 11 -26 0 -48 C-11 -26 -11 -8 0 -8 Z" transform="rotate(60)"/>
        <path d="M0 -8 C11 -8 11 -26 0 -48 C-11 -26 -11 -8 0 -8 Z" transform="rotate(120)"/>
        <path d="M0 -8 C11 -8 11 -26 0 -48 C-11 -26 -11 -8 0 -8 Z" transform="rotate(180)"/>
        <path d="M0 -8 C11 -8 11 -26 0 -48 C-11 -26 -11 -8 0 -8 Z" transform="rotate(240)"/>
        <path d="M0 -8 C11 -8 11 -26 0 -48 C-11 -26 -11 -8 0 -8 Z" transform="rotate(300)"/>
      </g>
      <rect x="73" y="77" width="14" height="14" rx="4" fill="#faf9f5"/>
    </g>
    <text x="80" y="190" text-anchor="middle" font-size="14" font-weight="600" fill="#2a2722">⑨ 六瓣花结</text>
  </g>

  <!-- 10 同心方结 -->
  <g transform="translate(834,354)">
    <rect width="160" height="160" rx="36" fill="#faf9f5" filter="url(#soft)"/>
    <g clip-path="url(#tile)" fill="none" stroke="#d97757" stroke-width="5" stroke-linejoin="round">
      <rect x="46" y="50" width="68" height="68" rx="18"/>
      <rect x="58" y="62" width="44" height="44" rx="12"/>
      <rect x="70" y="74" width="20" height="20" rx="7"/>
    </g>
    <text x="80" y="190" text-anchor="middle" font-size="14" font-weight="600" fill="#2a2722">⑩ 同心方结</text>
  </g>

  <!-- ROW 2 · 字母 H mark -->
  <!-- 11 几何等宽 H -->
  <g transform="translate(50,588)">
    <rect width="160" height="160" rx="36" fill="#d97757" filter="url(#soft)"/>
    <g clip-path="url(#tile)" fill="#faf9f5">
      <rect x="58" y="54" width="12" height="60" rx="6"/>
      <rect x="90" y="54" width="12" height="60" rx="6"/>
      <rect x="58" y="78" width="44" height="12" rx="6"/>
    </g>
    <text x="80" y="190" text-anchor="middle" font-size="14" font-weight="600" fill="#2a2722">⑪ 几何等宽 H</text>
  </g>

  <!-- 12 立体折角 H -->
  <g transform="translate(246,588)">
    <rect width="160" height="160" rx="36" fill="#faf9f5" filter="url(#soft)"/>
    <g clip-path="url(#tile)">
      <g fill="#b85a3d">
        <rect x="63" y="59" width="12" height="60" rx="4"/><rect x="95" y="59" width="12" height="60" rx="4"/><rect x="63" y="83" width="44" height="12" rx="4"/>
      </g>
      <g fill="#d97757">
        <rect x="58" y="54" width="12" height="60" rx="4"/><rect x="90" y="54" width="12" height="60" rx="4"/><rect x="58" y="78" width="44" height="12" rx="4"/>
      </g>
    </g>
    <text x="80" y="190" text-anchor="middle" font-size="14" font-weight="600" fill="#2a2722">⑫ 立体折角 H</text>
  </g>

  <!-- 13 双柱桥接 H -->
  <g transform="translate(442,588)">
    <rect width="160" height="160" rx="36" fill="#d97757" filter="url(#soft)"/>
    <g clip-path="url(#tile)" fill="#faf9f5">
      <rect x="56" y="54" width="14" height="60" rx="7"/>
      <rect x="90" y="54" width="14" height="60" rx="7"/>
      <rect x="56" y="76" width="48" height="16" rx="8"/>
    </g>
    <text x="80" y="190" text-anchor="middle" font-size="14" font-weight="600" fill="#2a2722">⑬ 双柱桥接 H</text>
  </g>

  <!-- 14 负空间 H -->
  <g transform="translate(638,588)">
    <rect width="160" height="160" rx="36" fill="#faf9f5" filter="url(#soft)"/>
    <g clip-path="url(#tile)">
      <rect x="44" y="44" width="72" height="72" rx="20" fill="#d97757"/>
      <g fill="#faf9f5">
        <rect x="60" y="60" width="11" height="40" rx="4"/>
        <rect x="89" y="60" width="11" height="40" rx="4"/>
        <rect x="60" y="74" width="40" height="11" rx="4"/>
      </g>
    </g>
    <text x="80" y="190" text-anchor="middle" font-size="14" font-weight="600" fill="#2a2722">⑭ 负空间 H</text>
  </g>

  <!-- 15 H 嵌方 -->
  <g transform="translate(834,588)">
    <rect width="160" height="160" rx="36" fill="#faf9f5" filter="url(#soft)"/>
    <g clip-path="url(#tile)">
      <g fill="#d97757">
        <rect x="58" y="54" width="12" height="60" rx="6"/>
        <rect x="90" y="54" width="12" height="60" rx="6"/>
        <rect x="58" y="78" width="44" height="12" rx="6"/>
      </g>
      <rect x="74" y="76" width="12" height="12" rx="3" fill="#faf9f5"/>
    </g>
    <text x="80" y="190" text-anchor="middle" font-size="14" font-weight="600" fill="#2a2722">⑮ H 嵌方</text>
  </g>

  <!-- ROW 3 · 抽象立方 / 容器 -->
  <!-- 16 三菱立方 -->
  <g transform="translate(50,822)">
    <rect width="160" height="160" rx="36" fill="#faf9f5" filter="url(#soft)"/>
    <g clip-path="url(#tile)" fill="#d97757">
      <path d="M80 48 L114 68 L80 88 L46 68 Z"/>
      <path d="M46 72 L78 90 L78 130 L46 110 Z"/>
      <path d="M82 90 L114 72 L114 112 L82 132 Z"/>
    </g>
    <text x="80" y="190" text-anchor="middle" font-size="14" font-weight="600" fill="#2a2722">⑯ 三菱立方</text>
  </g>

  <!-- 17 立方负空间 -->
  <g transform="translate(246,822)">
    <rect width="160" height="160" rx="36" fill="#faf9f5" filter="url(#soft)"/>
    <g clip-path="url(#tile)">
      <rect x="44" y="44" width="72" height="72" rx="20" fill="#d97757"/>
      <path d="M80 54 L102.5 67 L102.5 93 L80 106 L57.5 93 L57.5 67 Z" fill="none" stroke="#faf9f5" stroke-width="5" stroke-linejoin="round"/>
      <path d="M80 80 L80 54 M80 80 L102.5 93 M80 80 L57.5 93" fill="none" stroke="#faf9f5" stroke-width="5" stroke-linecap="round" stroke-linejoin="round"/>
    </g>
    <text x="80" y="190" text-anchor="middle" font-size="14" font-weight="600" fill="#2a2722">⑰ 立方负空间</text>
  </g>

  <!-- 18 开口立方 -->
  <g transform="translate(442,822)">
    <rect width="160" height="160" rx="36" fill="#1f1e1d" filter="url(#soft)"/>
    <g clip-path="url(#tile)">
      <path d="M48 74 L80 92 L80 130 L48 112 Z" fill="#d97757"/>
      <path d="M80 92 L112 74 L112 112 L80 130 Z" fill="#b85a3d"/>
      <path d="M48 66 L80 48 L112 66 L80 84 Z" fill="#ecb59c"/>
    </g>
    <text x="80" y="190" text-anchor="middle" font-size="14" font-weight="600" fill="#2a2722">⑱ 开口立方</text>
  </g>

  <!-- 19 极简盒角 -->
  <g transform="translate(638,822)">
    <rect width="160" height="160" rx="36" fill="#faf9f5" filter="url(#soft)"/>
    <g clip-path="url(#tile)" fill="none" stroke="#d97757" stroke-width="7" stroke-linecap="round" stroke-linejoin="round">
      <path d="M50 96 L80 78 L110 96"/>
      <path d="M80 78 L80 120"/>
    </g>
    <text x="80" y="190" text-anchor="middle" font-size="14" font-weight="600" fill="#2a2722">⑲ 极简盒角</text>
  </g>

  <!-- 20 向心容器 -->
  <g transform="translate(834,822)">
    <rect width="160" height="160" rx="36" fill="#d97757" filter="url(#soft)"/>
    <g clip-path="url(#tile)" fill="#faf9f5">
      <rect x="70" y="74" width="20" height="20" rx="6"/>
      <rect x="76" y="50" width="8" height="16" rx="4"/>
      <rect x="76" y="102" width="8" height="16" rx="4"/>
      <rect x="50" y="80" width="16" height="8" rx="4"/>
      <rect x="102" y="80" width="16" height="8" rx="4"/>
    </g>
    <text x="80" y="190" text-anchor="middle" font-size="14" font-weight="600" fill="#2a2722">⑳ 向心容器</text>
  </g>

  <text x="50" y="1036" font-size="13" fill="#4d493f">方案 C 全部为「单色抽象 mark · 居中留白 · 圆角方」—— 四族：放射星芒(Anthropic) / 对称结(OpenAI) / 字母 H / 抽象立方。给我编号或族名即可深化。</text>
</svg>
