<svg viewBox="0 0 1440 900" xmlns="http://www.w3.org/2000/svg">
  <defs>
    <style>
      text { font-family: 'Segoe UI', 'Microsoft YaHei', 'PingFang SC', sans-serif; }
      .mono { font-family: 'Consolas', 'Menlo', monospace; }
      .ink-1 { fill: #e6e8ee; } .ink-2 { fill: #b8bdc8; } .ink-3 { fill: #8a92a3; } .ink-4 { fill: #5c6478; }
      .brand { fill: #8b7cff; } .claude { fill: #d97757; } .codex { fill: #10a37f; }
      .ok { fill: #22c55e; } .warn { fill: #f59e0b; } .err { fill: #f43f5e; } .info { fill: #60a5fa; }
      .panel { fill: #161a21; } .card { fill: #20242c; stroke: #2a2f3a; stroke-width: 1; }
      .term { fill: #0b0d11; }
      .sep { stroke: #2a2f3a; stroke-width: 1; }
      .h-label { font-size: 11px; font-weight: 700; fill: #8a92a3; letter-spacing: 1px; }
      .title { font-size: 12px; font-weight: 700; fill: #e6e8ee; }
      .desc { font-size: 10.5px; fill: #8a92a3; }
      .badge { font-size: 9.5px; font-weight: 700; }
    </style>
  </defs>

  <rect width="1440" height="900" fill="#0f1115"/>

  <!-- ================= 顶部栏:workspace 标签 ================= -->
  <rect width="1440" height="44" class="panel"/>
  <line x1="0" y1="44" x2="1440" y2="44" class="sep"/>
  <rect x="16" y="14" width="16" height="16" rx="4" class="brand" opacity="0.9"/>
  <text x="40" y="27" font-size="14" font-weight="700" class="ink-1">HtyBox</text>

  <!-- workspace tabs -->
  <rect x="120" y="8" width="132" height="36" rx="8" fill="#20242c" stroke="#3a4150"/>
  <rect x="120" y="8" width="132" height="3" rx="1.5" class="brand"/>
  <text x="136" y="31" font-size="12.5" font-weight="600" class="ink-1">workspace1</text>
  <circle cx="232" cy="26" r="7" class="ok" opacity="0.16"/>
  <text x="232" y="29" font-size="9" font-weight="700" class="ok" text-anchor="middle">3</text>

  <rect x="260" y="8" width="124" height="36" rx="8" fill="transparent" stroke="#2a2f3a"/>
  <text x="276" y="31" font-size="12.5" class="ink-3">workspace2</text>
  <text x="364" y="31" font-size="11" class="ink-4">⏸</text>

  <text x="402" y="31" font-size="18" class="ink-3">+</text>

  <!-- 右侧:多 Agent 协作入口 + 设置 + 窗口控件 -->
  <rect x="1086" y="9" width="172" height="34" rx="8" fill="rgba(139,124,255,0.14)" stroke="rgba(139,124,255,0.45)"/>
  <circle cx="1104" cy="26" r="4" class="brand"/>
  <text x="1116" y="30" font-size="12" font-weight="600" class="brand">多 Agent 协作</text>
  <text x="1286" y="31" font-size="15" class="ink-3">⚙</text>
  <text x="1336" y="30" font-size="14" class="ink-3">—</text>
  <text x="1372" y="30" font-size="13" class="ink-3">▢</text>
  <text x="1408" y="30" font-size="13" class="ink-3">✕</text>

  <!-- ================= 左栏:Skill ================= -->
  <rect x="0" y="44" width="260" height="832" class="panel"/>
  <line x1="260" y1="44" x2="260" y2="876" class="sep"/>
  <text x="16" y="74" class="h-label">SKILL · 12</text>
  <!-- 搜索框 -->
  <rect x="12" y="84" width="236" height="32" rx="8" fill="#0f1115" stroke="#2a2f3a"/>
  <text x="26" y="104" font-size="12" class="ink-4">🔍  搜索 skill…</text>

  <!-- skill 卡片 -->
  <!-- card template: y, name, source, srccolor, desc -->
  <g>
    <rect x="12" y="128" width="236" height="60" rx="10" class="card"/>
    <text x="24" y="150" class="title">frontend-design</text>
    <rect x="150" y="138" width="48" height="16" rx="6" fill="rgba(96,165,250,0.16)"/>
    <text x="174" y="150" class="badge info" text-anchor="middle">plugin</text>
    <text x="24" y="170" class="desc">production-grade frontend 界面生成</text>
    <text x="232" y="170" font-size="12" class="ink-4" text-anchor="end">⠿</text>
  </g>
  <g>
    <rect x="12" y="196" width="236" height="60" rx="10" class="card"/>
    <text x="24" y="218" class="title">deep-research</text>
    <rect x="142" y="206" width="40" height="16" rx="6" fill="rgba(34,197,94,0.16)"/>
    <text x="162" y="218" class="badge ok" text-anchor="middle">user</text>
    <text x="24" y="238" class="desc">多源检索 + 事实核查报告</text>
    <text x="232" y="238" font-size="12" class="ink-4" text-anchor="end">⠿</text>
  </g>
  <g>
    <rect x="12" y="264" width="236" height="60" rx="10" class="card"/>
    <text x="24" y="286" class="title">code-review</text>
    <rect x="130" y="274" width="54" height="16" rx="6" fill="rgba(245,158,11,0.16)"/>
    <text x="157" y="286" class="badge warn" text-anchor="middle">project</text>
    <text x="24" y="306" class="desc">审查当前 diff 的正确性问题</text>
    <text x="232" y="306" font-size="12" class="ink-4" text-anchor="end">⠿</text>
  </g>
  <g>
    <rect x="12" y="332" width="236" height="60" rx="10" class="card"/>
    <text x="24" y="354" class="title">svg-mockup</text>
    <rect x="126" y="342" width="54" height="16" rx="6" fill="rgba(245,158,11,0.16)"/>
    <text x="153" y="354" class="badge warn" text-anchor="middle">project</text>
    <text x="24" y="374" class="desc">写码前生成 UI mockup SVG</text>
    <text x="232" y="374" font-size="12" class="ink-4" text-anchor="end">⠿</text>
  </g>
  <g>
    <rect x="12" y="400" width="236" height="60" rx="10" class="card"/>
    <text x="24" y="422" class="title">verify</text>
    <rect x="92" y="410" width="48" height="16" rx="6" fill="rgba(96,165,250,0.16)"/>
    <text x="116" y="422" class="badge info" text-anchor="middle">plugin</text>
    <text x="24" y="442" class="desc">跑起来验证改动是否真生效</text>
    <text x="232" y="442" font-size="12" class="ink-4" text-anchor="end">⠿</text>
  </g>

  <!-- 拖拽中的 skill 幽灵卡 + 注入提示(展示核心交互) -->
  <g opacity="0.96">
    <rect x="470" y="300" width="220" height="52" rx="10" fill="#262b35" stroke="#8b7cff" stroke-width="1.5"/>
    <text x="484" y="322" class="title">frontend-design</text>
    <text x="484" y="340" class="desc">拖拽中…</text>
    <circle cx="470" cy="300" r="13" class="brand"/>
    <text x="470" y="305" font-size="13" font-weight="700" fill="#0f1115" text-anchor="middle">＋</text>
  </g>
  <path d="M 250 360 C 360 360, 380 326, 466 326" fill="none" stroke="#8b7cff" stroke-width="1.5" stroke-dasharray="5 4"/>

  <!-- ================= 中栏:终端区 ================= -->
  <!-- 终端标签栏 -->
  <rect x="261" y="44" width="819" height="34" fill="#13161c"/>
  <line x1="261" y1="78" x2="1080" y2="78" class="sep"/>
  <rect x="272" y="50" width="150" height="28" rx="7" fill="#0b0d11" stroke="#3a4150"/>
  <circle cx="288" cy="64" r="4" class="claude"/>
  <text x="300" y="68" font-size="11.5" font-weight="600" class="ink-1">终端1 · 负责人</text>
  <text x="412" y="68" font-size="11" class="ink-4">✕</text>
  <rect x="430" y="50" width="150" height="28" rx="7" fill="transparent"/>
  <circle cx="446" cy="64" r="4" class="codex"/>
  <text x="458" y="68" font-size="11.5" class="ink-3">终端2 · 维护员</text>
  <text x="570" y="68" font-size="11" class="ink-4">✕</text>
  <text x="598" y="68" font-size="16" class="ink-3">+</text>
  <text x="1056" y="68" font-size="13" class="ink-3">⫶⫶</text>

  <!-- 终端1 (active, 焦点紫框) claude -->
  <rect x="266" y="84" width="404" height="786" rx="10" class="term"/>
  <rect x="266" y="84" width="404" height="786" rx="10" fill="none" stroke="#8b7cff" stroke-width="1.5"/>
  <rect x="266" y="84" width="404" height="26" rx="10" fill="#15171d"/>
  <rect x="266" y="98" width="404" height="12" fill="#15171d"/>
  <circle cx="282" cy="97" r="4" class="claude"/>
  <text x="294" y="101" font-size="10.5" class="ink-2">终端1 — 负责人 · ClaudeCode opus-4-8</text>
  <text x="658" y="101" font-size="10.5" class="ink-4" text-anchor="end">▶ running</text>
  <!-- claude content -->
  <text x="282" y="138" font-size="11" class="mono claude">╭─ ✻ Claude Code · 负责人 ───────────╮</text>
  <text x="282" y="156" font-size="11" class="mono ink-3">│ /frontend-design  已加载            │</text>
  <text x="282" y="174" font-size="11" class="mono claude">╰────────────────────────────────────╯</text>
  <text x="282" y="202" font-size="11" class="mono ink-2">&gt; 分析模块结构, 制定重构计划</text>
  <text x="282" y="228" font-size="11" class="mono ink-1">● 先让维护员探索代码现状……</text>
  <text x="298" y="246" font-size="11" class="mono brand">⎿ assign_task → 维护员 (scope: 只读)</text>
  <text x="282" y="272" font-size="11" class="mono ink-3">● 等待回报中  (await_next 已挂起)</text>
  <text x="282" y="316" font-size="11" class="mono ok">＋ 注入: /frontend-design</text>
  <text x="282" y="800" font-size="11" class="mono ink-2">&gt; <tspan class="ink-1">▊</tspan></text>

  <!-- 分屏拖动条 -->
  <rect x="670" y="84" width="6" height="786" fill="#0f1115"/>
  <rect x="671.5" y="455" width="3" height="44" rx="1.5" fill="#3a4150"/>

  <!-- 终端2 codex -->
  <rect x="676" y="84" width="398" height="786" rx="10" class="term"/>
  <rect x="676" y="84" width="398" height="26" rx="10" fill="#15171d"/>
  <rect x="676" y="98" width="398" height="12" fill="#15171d"/>
  <circle cx="692" cy="97" r="4" class="codex"/>
  <text x="704" y="101" font-size="10.5" class="ink-2">终端2 — 维护员 · Codex gpt-5.5</text>
  <text x="1062" y="101" font-size="10.5" class="ink-4" text-anchor="end">▶ working</text>
  <text x="692" y="140" font-size="11" class="mono codex">codex › 维护员 (gpt-5.5)</text>
  <text x="692" y="166" font-size="11" class="mono ink-2">收到任务: 探索 Assets/Scripts/ 现状</text>
  <text x="692" y="192" font-size="11" class="mono ink-3">扫描脚本……</text>
  <text x="692" y="210" font-size="11" class="mono ok">✓ 已扫描 142 个脚本 / 8 个程序集</text>
  <text x="692" y="236" font-size="11" class="mono ink-3">归纳模块依赖关系……</text>
  <text x="692" y="262" font-size="11" class="mono ink-1">● 正在汇总代码事实, 准备 report_result</text>
  <text x="692" y="800" font-size="11" class="mono ink-2">› <tspan class="ink-1">▊</tspan></text>

  <!-- ================= 右栏:Memory ================= -->
  <rect x="1080" y="44" width="360" height="832" class="panel"/>
  <line x1="1080" y1="44" x2="1080" y2="876" class="sep"/>
  <text x="1096" y="74" class="h-label">MEMORY</text>
  <rect x="1212" y="62" width="216" height="22" rx="6" fill="#0f1115" stroke="#2a2f3a"/>
  <text x="1224" y="77" font-size="10.5" class="mono ink-2">G:\hty_workflows</text>
  <text x="1416" y="77" font-size="10" class="ink-4">▾</text>

  <g>
    <rect x="1096" y="98" width="328" height="62" rx="10" class="card"/>
    <text x="1108" y="120" class="title">project-htybox</text>
    <rect x="1300" y="106" width="54" height="16" rx="6" fill="rgba(245,158,11,0.16)"/>
    <text x="1327" y="118" class="badge warn" text-anchor="middle">project</text>
    <text x="1108" y="142" class="desc">HtyBox 产品定义 + 技术栈 + 决策</text>
  </g>
  <g>
    <rect x="1096" y="168" width="328" height="62" rx="10" class="card"/>
    <text x="1108" y="190" class="title">user-role</text>
    <rect x="1322" y="176" width="40" height="16" rx="6" fill="rgba(34,197,94,0.16)"/>
    <text x="1342" y="188" class="badge ok" text-anchor="middle">user</text>
    <text x="1108" y="212" class="desc">接手项目的开发者背景与沟通偏好</text>
  </g>
  <g>
    <rect x="1096" y="238" width="328" height="62" rx="10" class="card"/>
    <text x="1108" y="260" class="title">team-conventions</text>
    <rect x="1290" y="246" width="64" height="16" rx="6" fill="rgba(96,165,250,0.16)"/>
    <text x="1322" y="258" class="badge info" text-anchor="middle">reference</text>
    <text x="1108" y="282" class="desc">提交/分支规范、命名约定</text>
  </g>
  <g>
    <rect x="1096" y="308" width="328" height="62" rx="10" class="card"/>
    <text x="1108" y="330" class="title">refactor-feedback</text>
    <rect x="1294" y="316" width="60" height="16" rx="6" fill="rgba(244,63,94,0.16)"/>
    <text x="1324" y="328" class="badge err" text-anchor="middle">feedback</text>
    <text x="1108" y="352" class="desc">禁止兜底式补丁, 要根因式修复</text>
  </g>

  <!-- 拖 memory 提示 -->
  <text x="1096" y="396" font-size="10.5" class="ink-4">拖任意卡片到终端 → 注入 @绝对路径</text>

  <!-- ================= 底部状态栏 ================= -->
  <rect x="0" y="876" width="1440" height="24" class="panel"/>
  <line x1="0" y1="876" x2="1440" y2="876" class="sep"/>
  <circle cx="16" cy="888" r="4" class="ok"/>
  <text x="28" y="892" font-size="10.5" class="ink-3">2 终端运行中 · workspace1</text>
  <text x="720" y="892" font-size="10.5" class="mono ink-4" text-anchor="middle">拖拽 skill/memory 即可喂给当前终端的 Claude Code / Codex</text>
  <text x="1424" y="892" font-size="10.5" class="ink-4" text-anchor="end">HtyBox v0.1 · Tauri</text>
</svg>
